<?xml version="1.0" standalone="no"?>
<!DOCTYPE svg PUBLIC "-//W3C//DTD SVG 20010904//EN"
 "http://www.w3.org/TR/2001/REC-SVG-20010904/DTD/svg10.dtd">
<svg version="1.0" xmlns="http://www.w3.org/2000/svg"
 width="994.000000pt" height="994.000000pt" viewBox="0 0 994.000000 994.000000"
 preserveAspectRatio="xMidYMid meet">
<metadata>
Created by potrace 1.14, written by Peter Selinger 2001-2017
</metadata>
<g transform="translate(0.000000,994.000000) scale(0.100000,-0.100000)"
fill="#000000" stroke="none">
<path d="M5320 7571 c-8 -5 -39 -14 -68 -21 -110 -25 -169 -117 -308 -470 -7
-19 -20 -60 -29 -90 -13 -45 -84 -272 -115 -370 -5 -14 -16 -52 -25 -85 -18
-65 -35 -122 -58 -200 -8 -27 -22 -79 -32 -115 -9 -36 -23 -85 -31 -110 -8
-25 -14 -55 -14 -67 0 -12 -4 -25 -10 -28 -5 -3 -10 -14 -10 -24 0 -10 -7 -41
-14 -67 -8 -27 -22 -76 -31 -109 -15 -56 -24 -87 -63 -220 -22 -75 -38 -133
-57 -205 -10 -36 -28 -99 -41 -140 -12 -41 -30 -102 -39 -135 -9 -33 -23 -80
-31 -104 -8 -25 -14 -53 -14 -64 0 -11 -14 -65 -30 -121 -17 -56 -38 -126 -47
-156 -9 -30 -22 -73 -28 -95 -23 -73 -53 -178 -92 -315 -8 -30 -19 -68 -24
-85 -20 -69 -68 -235 -84 -295 -9 -36 -21 -76 -25 -90 -29 -99 -59 -213 -69
-265 -4 -22 -12 -56 -18 -75 -36 -115 -57 -258 -56 -375 1 -111 9 -139 53
-179 30 -27 50 -36 95 -41 86 -11 184 5 305 50 19 8 76 28 125 46 50 18 94 36
99 41 6 4 16 8 23 8 7 0 43 14 80 31 110 49 124 55 203 87 41 16 100 40 130
52 30 12 109 48 175 80 66 32 163 76 215 98 53 22 136 61 185 85 50 24 115 56
145 70 184 85 242 113 400 191 97 47 181 86 188 86 6 0 38 13 69 29 32 17 137
69 233 116 185 91 210 107 210 136 0 31 -20 32 -83 1 -34 -16 -138 -67 -231
-112 -228 -111 -338 -162 -421 -195 -91 -36 -236 -101 -354 -159 -52 -25 -98
-46 -102 -46 -5 0 -43 -16 -86 -36 -43 -20 -87 -39 -98 -44 -11 -5 -45 -19
-75 -33 -64 -29 -147 -65 -175 -76 -11 -5 -42 -18 -69 -31 -26 -12 -69 -30
-95 -40 -25 -10 -98 -39 -161 -65 -108 -44 -201 -78 -400 -146 -47 -16 -94
-34 -105 -39 -37 -17 -129 -38 -196 -45 -60 -6 -69 -4 -93 17 -38 33 -49 111
-36 267 5 68 14 140 19 160 5 20 17 72 27 116 20 91 31 137 107 435 55 215 88
340 132 500 12 47 26 103 30 125 4 22 22 96 42 165 19 69 39 143 44 165 5 22
13 51 18 65 5 14 17 54 26 90 10 36 24 88 32 115 7 28 21 75 29 105 9 30 22
75 30 100 8 25 14 55 14 67 0 12 4 24 9 27 5 4 12 25 16 49 3 23 10 51 14 62
19 48 41 124 41 141 0 11 6 39 14 64 8 25 21 70 30 100 8 30 22 80 31 110 20
71 127 394 160 484 14 38 25 77 25 87 0 10 6 33 14 51 8 18 29 71 46 118 17
47 38 99 46 117 8 17 14 38 14 46 0 9 5 19 10 22 6 3 10 13 10 22 0 22 118
299 148 348 14 22 58 75 99 118 49 53 73 87 73 103 0 25 -14 30 -40 15z"/>
</g>
</svg>
